# xmcd
#
# Track frame offsets:
#	150
#	17650
#	31990
#	50724
#	66972
#	80726
#	95464
#	110008
#	125179
#	145185
#	159100
#	173632
#	191424
#	213938
#	231293
#	280042
#	292591
#	308341
#
# Disc length: 4237 seconds
#
# Revision: 0
# Processed by: cddbd v1.5.2PL0 Copyright (c) Steve Scherf et al.
# Submitted via: SynApp - FreeCDDB Version: 2.2
#
DISCID=f3108b12
DTITLE=Texas Lightning - No No Never
DYEAR=2007
DGENRE=Country
TTITLE0=Olaf Henning - Cowboy und Indianer 2005
TTITLE1=Tim Toupet and DJ Padre - Humba Täterä (Stadion-Mix)
TTITLE2=Mickie Krause - Oh Wie Ist Das Schön
TTITLE3=Höhner - Viva Colonia-Arena Version
TTITLE4=002 - Texas_Lightning_-_No_No_Never
TTITLE5=Bufallo Ball - Finale (Ooh Ooh) (Stadion Mix)
TTITLE6=Rednex - Cotton Eye Joe
TTITLE7=Hermes House Band - Country Roads
TTITLE8=Wolfgang Petry - Mer losse dr Dom en Kölle
TTITLE9=Die 3Colonias - Vera (..zeig mir dein Dessous)
TTITLE10=buddy - mama mallorca
TTITLE11=Gibson Brothers - Que Sera Mi Vida (if You Shoul
TTITLE12=Alcazar - Crying at the discoteque
TTITLE13=Hermes House Band - Que Sera Sera
TTITLE14=hermes - house-band-football-megamix-2006
TTITLE15=Margit Sponheimer - Am Rosenmontag bin ich geboren
TTITLE16=Die Mainzer Hofsänger - Ole Ole Fiesta, Fiesta Hier Am Rhein
TTITLE17=Various Artist - Die Mainzer Hofsänger - Sassa
EXTD=Karneval
EXTT0=
EXTT1=
EXTT2=
EXTT3=
EXTT4=
EXTT5=
EXTT6=
EXTT7=
EXTT8=
EXTT9=
EXTT10=
EXTT11=
EXTT12=
EXTT13=
EXTT14=
EXTT15=
EXTT16=
EXTT17=
PLAYORDER=
